<svg width="161" height="161" viewBox="0 0 161 161" fill="none" xmlns="http://www.w3.org/2000/svg">
<path d="M53.519 48C53.567 48 53.591 48.048 53.591 48.144C53.591 48.24 53.567 48.288 53.519 48.288C52.847 48.288 52.103 48.536 51.287 49.032C50.471 49.528 49.703 50.2 48.983 51.048L45.335 55.032C45.831 55.08 46.223 55.216 46.511 55.44C46.815 55.664 47.087 55.992 47.327 56.424C47.567 56.84 47.919 57.552 48.383 58.56C48.943 59.712 49.359 60.536 49.631 61.032C49.903 61.528 50.207 61.936 50.543 62.256C50.895 62.56 51.311 62.712 51.791 62.712C51.855 62.712 51.887 62.76 51.887 62.856C51.887 62.952 51.855 63 51.791 63H48.671C48.479 63 48.319 62.936 48.191 62.808C48.063 62.664 47.863 62.328 47.591 61.8C47.335 61.256 46.895 60.28 46.271 58.872C46.239 58.792 46.199 58.704 46.151 58.608C46.103 58.512 46.055 58.416 46.007 58.32C45.591 57.408 45.279 56.776 45.071 56.424C44.863 56.072 44.631 55.824 44.375 55.68C44.119 55.52 43.751 55.44 43.271 55.44H43.151L42.143 61.128C42.079 61.544 42.047 61.8 42.047 61.896C42.047 62.232 42.151 62.456 42.359 62.568C42.583 62.664 42.991 62.712 43.583 62.712C43.647 62.712 43.679 62.76 43.679 62.856C43.679 62.952 43.647 63 43.583 63C43.071 63 42.671 62.992 42.383 62.976L40.727 62.952L39.143 62.976C38.855 62.992 38.479 63 38.015 63C37.951 63 37.919 62.952 37.919 62.856C37.919 62.76 37.951 62.712 38.015 62.712C38.527 62.712 38.911 62.664 39.167 62.568C39.439 62.472 39.639 62.312 39.767 62.088C39.911 61.848 40.023 61.488 40.103 61.008L42.071 49.896C42.135 49.48 42.167 49.224 42.167 49.128C42.167 48.776 42.063 48.552 41.855 48.456C41.647 48.344 41.247 48.288 40.655 48.288C40.591 48.288 40.559 48.24 40.559 48.144C40.559 48.048 40.591 48 40.655 48L41.735 48.024C42.375 48.056 42.887 48.072 43.271 48.072C43.751 48.072 44.343 48.056 45.047 48.024L46.175 48C46.239 48 46.271 48.048 46.271 48.144C46.271 48.24 46.239 48.288 46.175 48.288C45.455 48.288 44.959 48.408 44.687 48.648C44.415 48.888 44.215 49.36 44.087 50.064L43.223 55.032C43.591 55.016 44.055 55.008 44.615 55.008H44.831L47.855 51.288C48.735 50.248 49.175 49.456 49.175 48.912C49.175 48.496 48.895 48.288 48.335 48.288C48.287 48.288 48.263 48.24 48.263 48.144C48.263 48.048 48.287 48 48.335 48L49.343 48.024C49.951 48.056 50.487 48.072 50.951 48.072C51.511 48.072 52.079 48.056 52.655 48.024L53.519 48ZM58.758 53.568C59.558 53.568 60.166 53.784 60.582 54.216C61.014 54.648 61.23 55.272 61.23 56.088C61.23 56.36 61.206 56.64 61.158 56.928C60.998 58 60.622 59.008 60.03 59.952C59.454 60.88 58.75 61.624 57.918 62.184C57.102 62.744 56.262 63.024 55.398 63.024C55.078 63.024 54.71 63.008 54.294 62.976L53.526 67.272C53.478 67.56 53.454 67.792 53.454 67.968C53.454 68.224 53.51 68.408 53.622 68.52C53.75 68.632 53.95 68.688 54.222 68.688C54.286 68.688 54.462 68.672 54.75 68.64C54.814 68.624 54.854 68.656 54.87 68.736C54.886 68.832 54.862 68.888 54.798 68.904L50.382 69.6C50.334 69.616 50.302 69.576 50.286 69.48C50.254 69.384 50.27 69.328 50.334 69.312C50.67 69.248 50.918 69.16 51.078 69.048C51.238 68.952 51.358 68.792 51.438 68.568C51.518 68.344 51.606 67.968 51.702 67.44L53.742 55.968C53.182 56.352 52.79 56.624 52.566 56.784C52.55 56.8 52.526 56.808 52.494 56.808C52.446 56.808 52.406 56.776 52.374 56.712C52.342 56.648 52.35 56.6 52.398 56.568C52.718 56.296 53.198 55.92 53.838 55.44L54.15 53.736C54.15 53.704 54.31 53.584 54.63 53.376C54.95 53.152 55.238 52.928 55.494 52.704C55.75 52.464 55.91 52.2 55.974 51.912C55.99 51.848 56.038 51.824 56.118 51.84C56.214 51.856 56.254 51.896 56.238 51.96L55.83 54.288C56.87 53.808 57.846 53.568 58.758 53.568ZM59.262 57.72C59.294 57.4 59.31 57.16 59.31 57C59.31 55.432 58.646 54.648 57.318 54.648C56.774 54.648 56.238 54.752 55.71 54.96L54.462 61.968C54.99 62.208 55.574 62.328 56.214 62.328C57.062 62.328 57.734 61.912 58.23 61.08C58.742 60.248 59.086 59.128 59.262 57.72ZM71.58 61.152C71.596 61.136 71.62 61.128 71.652 61.128C71.7 61.128 71.74 61.16 71.772 61.224C71.804 61.272 71.804 61.312 71.772 61.344C71.244 61.968 70.764 62.44 70.332 62.76C69.9 63.064 69.484 63.216 69.084 63.216C68.716 63.216 68.444 63.112 68.268 62.904C68.092 62.68 68.004 62.336 68.004 61.872C68.004 61.536 68.036 61.2 68.1 60.864L68.436 58.944C67.796 60.288 67.036 61.352 66.156 62.136C65.292 62.92 64.452 63.312 63.636 63.312C63.14 63.312 62.756 63.168 62.484 62.88C62.212 62.576 62.076 62.12 62.076 61.512C62.076 60.408 62.42 59.224 63.108 57.96C63.812 56.68 64.676 55.608 65.7 54.744C66.74 53.864 67.724 53.424 68.652 53.424C68.956 53.424 69.252 53.48 69.54 53.592C69.844 53.688 70.1 53.84 70.308 54.048C70.628 53.776 70.86 53.504 71.004 53.232C71.036 53.2 71.068 53.184 71.1 53.184C71.148 53.184 71.196 53.2 71.244 53.232C71.292 53.248 71.308 53.264 71.292 53.28L69.9 60.864C69.852 61.104 69.828 61.304 69.828 61.464C69.828 61.656 69.86 61.808 69.924 61.92C69.988 62.032 70.076 62.088 70.188 62.088C70.492 62.088 70.956 61.776 71.58 61.152ZM64.956 61.752C65.532 61.752 66.124 61.424 66.732 60.768C67.356 60.112 67.876 59.328 68.292 58.416C68.708 57.504 68.916 56.72 68.916 56.064C68.916 55.568 68.796 55.184 68.556 54.912C68.316 54.624 67.972 54.48 67.524 54.48C67.012 54.48 66.516 54.688 66.036 55.104C65.556 55.504 65.14 56.064 64.788 56.784C64.452 57.488 64.212 58.28 64.068 59.16C64.004 59.544 63.972 59.912 63.972 60.264C63.972 61.256 64.3 61.752 64.956 61.752ZM76.0777 63.312C74.9897 63.312 74.1817 62.952 73.6537 62.232C73.1417 61.496 72.8857 60.584 72.8857 59.496C72.8857 59.112 72.9257 58.664 73.0057 58.152C73.1817 57.224 73.5497 56.4 74.1097 55.68C74.6697 54.96 75.3257 54.408 76.0777 54.024C76.8297 53.624 77.5737 53.424 78.3097 53.424C78.8857 53.424 79.3897 53.552 79.8217 53.808C80.2697 54.048 80.4937 54.392 80.4937 54.84C80.4937 55.176 80.3977 55.448 80.2057 55.656C80.0297 55.848 79.7657 55.944 79.4137 55.944C78.8057 55.944 78.4457 55.616 78.3337 54.96C78.2537 54.688 78.1417 54.472 77.9977 54.312C77.8537 54.136 77.6297 54.048 77.3257 54.048C76.7497 54.048 76.2537 54.352 75.8377 54.96C75.4377 55.552 75.1577 56.344 74.9977 57.336C74.9017 57.864 74.8537 58.376 74.8537 58.872C74.8537 59.896 75.0617 60.72 75.4777 61.344C75.9097 61.952 76.5497 62.256 77.3977 62.256C77.7657 62.256 78.1577 62.176 78.5737 62.016C78.9897 61.84 79.3497 61.632 79.6537 61.392H79.6777C79.7257 61.392 79.7737 61.416 79.8217 61.464C79.8697 61.512 79.8777 61.56 79.8457 61.608C79.2377 62.184 78.6057 62.616 77.9497 62.904C77.3097 63.176 76.6857 63.312 76.0777 63.312ZM84.3266 63.336C83.3026 63.336 82.5106 63 81.9506 62.328C81.4066 61.656 81.1346 60.784 81.1346 59.712C81.1346 59.264 81.1826 58.816 81.2786 58.368C81.4546 57.424 81.7906 56.576 82.2866 55.824C82.7986 55.072 83.4226 54.488 84.1586 54.072C84.8946 53.64 85.6706 53.424 86.4866 53.424C87.5266 53.424 88.3266 53.752 88.8866 54.408C89.4466 55.064 89.7266 55.928 89.7266 57C89.7266 57.432 89.6786 57.888 89.5826 58.368C89.3906 59.392 89.0146 60.28 88.4546 61.032C87.9106 61.784 87.2706 62.36 86.5346 62.76C85.8146 63.144 85.0786 63.336 84.3266 63.336ZM85.1426 62.736C85.7026 62.736 86.1986 62.44 86.6306 61.848C87.0626 61.256 87.3746 60.448 87.5666 59.424C87.6786 58.88 87.7346 58.304 87.7346 57.696C87.7346 56.64 87.5506 55.76 87.1826 55.056C86.8306 54.352 86.3426 54 85.7186 54C85.1746 54 84.6786 54.288 84.2306 54.864C83.7986 55.44 83.4866 56.264 83.2946 57.336C83.1826 58.008 83.1266 58.576 83.1266 59.04C83.1266 60.112 83.3026 61 83.6546 61.704C84.0226 62.392 84.5186 62.736 85.1426 62.736ZM105.981 61.152C106.013 61.12 106.045 61.104 106.077 61.104C106.125 61.104 106.165 61.136 106.197 61.2C106.229 61.248 106.221 61.296 106.173 61.344C105.629 61.984 105.149 62.456 104.733 62.76C104.317 63.064 103.893 63.216 103.461 63.216C103.093 63.216 102.829 63.112 102.669 62.904C102.509 62.696 102.429 62.368 102.429 61.92C102.429 61.584 102.461 61.232 102.525 60.864L103.245 57.048C103.325 56.536 103.365 56.152 103.365 55.896C103.365 55.064 103.109 54.648 102.597 54.648C102.181 54.648 101.733 54.936 101.253 55.512C100.789 56.072 100.341 56.904 99.9092 58.008C99.4772 59.112 99.1172 60.432 98.8292 61.968L98.6852 62.76C98.6372 63.048 98.2532 63.192 97.5332 63.192C97.0532 63.192 96.8132 63.136 96.8132 63.024C96.8292 62.928 96.8772 62.688 96.9572 62.304C97.0532 61.92 97.1252 61.56 97.1732 61.224L97.9652 57.024C98.0452 56.544 98.0852 56.176 98.0852 55.92C98.0852 55.072 97.8132 54.648 97.2692 54.648C96.8532 54.648 96.4052 54.944 95.9252 55.536C95.4452 56.128 94.9892 56.984 94.5572 58.104C94.1412 59.208 93.7972 60.512 93.5252 62.016L93.3812 62.76C93.3012 63.048 92.9172 63.192 92.2292 63.192C91.7492 63.192 91.5092 63.136 91.5092 63.024L91.6292 62.448L91.8692 61.272L92.8532 55.872C92.8852 55.728 92.9012 55.544 92.9012 55.32C92.9012 54.856 92.7572 54.624 92.4692 54.624C92.1172 54.624 91.6292 54.96 91.0052 55.632C90.9892 55.648 90.9652 55.656 90.9332 55.656C90.8852 55.656 90.8372 55.632 90.7892 55.584C90.7572 55.52 90.7652 55.464 90.8132 55.416C91.3732 54.76 91.8772 54.28 92.3252 53.976C92.7892 53.672 93.2452 53.52 93.6932 53.52C94.0452 53.52 94.3012 53.624 94.4612 53.832C94.6372 54.024 94.7252 54.328 94.7252 54.744C94.7252 54.872 94.6932 55.176 94.6292 55.656L94.2452 57.864C94.7892 56.44 95.4132 55.344 96.1172 54.576C96.8372 53.808 97.5972 53.424 98.3972 53.424C99.4052 53.424 99.9092 54.056 99.9092 55.32C99.9092 55.752 99.8692 56.168 99.7892 56.568L99.5492 57.84C100.109 56.432 100.741 55.344 101.445 54.576C102.165 53.808 102.909 53.424 103.677 53.424C104.701 53.424 105.213 54.048 105.213 55.296C105.213 55.68 105.165 56.112 105.069 56.592L104.301 60.864C104.253 61.104 104.229 61.304 104.229 61.464C104.229 61.88 104.365 62.088 104.637 62.088C104.909 62.088 105.357 61.776 105.981 61.152ZM116.557 61.152C116.573 61.136 116.597 61.128 116.629 61.128C116.677 61.128 116.717 61.16 116.749 61.224C116.781 61.272 116.781 61.312 116.749 61.344C116.221 61.968 115.741 62.44 115.309 62.76C114.877 63.064 114.461 63.216 114.061 63.216C113.693 63.216 113.421 63.112 113.245 62.904C113.069 62.68 112.981 62.336 112.981 61.872C112.981 61.536 113.013 61.2 113.077 60.864L113.413 58.944C112.773 60.288 112.013 61.352 111.133 62.136C110.269 62.92 109.429 63.312 108.613 63.312C108.117 63.312 107.733 63.168 107.461 62.88C107.189 62.576 107.053 62.12 107.053 61.512C107.053 60.408 107.397 59.224 108.085 57.96C108.789 56.68 109.653 55.608 110.677 54.744C111.717 53.864 112.701 53.424 113.629 53.424C113.933 53.424 114.229 53.48 114.517 53.592C114.821 53.688 115.077 53.84 115.285 54.048C115.605 53.776 115.837 53.504 115.981 53.232C116.013 53.2 116.045 53.184 116.077 53.184C116.125 53.184 116.173 53.2 116.221 53.232C116.269 53.248 116.285 53.264 116.269 53.28L114.877 60.864C114.829 61.104 114.805 61.304 114.805 61.464C114.805 61.656 114.837 61.808 114.901 61.92C114.965 62.032 115.053 62.088 115.165 62.088C115.469 62.088 115.933 61.776 116.557 61.152ZM109.933 61.752C110.509 61.752 111.101 61.424 111.709 60.768C112.333 60.112 112.853 59.328 113.269 58.416C113.685 57.504 113.893 56.72 113.893 56.064C113.893 55.568 113.773 55.184 113.533 54.912C113.293 54.624 112.949 54.48 112.501 54.48C111.989 54.48 111.493 54.688 111.013 55.104C110.533 55.504 110.117 56.064 109.765 56.784C109.429 57.488 109.189 58.28 109.045 59.16C108.981 59.544 108.949 59.912 108.949 60.264C108.949 61.256 109.277 61.752 109.933 61.752ZM119.134 60.768C119.598 60.768 119.958 60.912 120.214 61.2C120.47 61.488 120.598 61.896 120.598 62.424C120.598 62.696 120.566 62.96 120.502 63.216C120.374 63.84 120.062 64.472 119.566 65.112C119.086 65.768 118.494 66.344 117.79 66.84C117.774 66.856 117.75 66.864 117.718 66.864C117.67 66.864 117.63 66.832 117.598 66.768C117.566 66.704 117.574 66.656 117.622 66.624C118.726 65.696 119.366 64.704 119.542 63.648C119.574 63.456 119.59 63.336 119.59 63.288C119.59 63.224 119.574 63.128 119.542 63C119.382 63.128 119.182 63.192 118.942 63.192C118.574 63.192 118.286 63.08 118.078 62.856C117.87 62.616 117.766 62.336 117.766 62.016C117.766 61.664 117.886 61.368 118.126 61.128C118.366 60.888 118.702 60.768 119.134 60.768ZM39.0113 88.312C37.9233 88.312 37.1153 87.952 36.5873 87.232C36.0753 86.496 35.8193 85.584 35.8193 84.496C35.8193 84.112 35.8593 83.664 35.9393 83.152C36.1153 82.224 36.4833 81.4 37.0433 80.68C37.6033 79.96 38.2593 79.408 39.0113 79.024C39.7633 78.624 40.5073 78.424 41.2433 78.424C41.8193 78.424 42.3233 78.552 42.7553 78.808C43.2033 79.048 43.4273 79.392 43.4273 79.84C43.4273 80.176 43.3313 80.448 43.1393 80.656C42.9633 80.848 42.6993 80.944 42.3473 80.944C41.7393 80.944 41.3793 80.616 41.2673 79.96C41.1873 79.688 41.0753 79.472 40.9313 79.312C40.7873 79.136 40.5633 79.048 40.2593 79.048C39.6833 79.048 39.1873 79.352 38.7713 79.96C38.3713 80.552 38.0913 81.344 37.9313 82.336C37.8353 82.864 37.7873 83.376 37.7873 83.872C37.7873 84.896 37.9953 85.72 38.4113 86.344C38.8433 86.952 39.4833 87.256 40.3313 87.256C40.6993 87.256 41.0913 87.176 41.5073 87.016C41.9233 86.84 42.2833 86.632 42.5873 86.392H42.6113C42.6593 86.392 42.7073 86.416 42.7553 86.464C42.8033 86.512 42.8113 86.56 42.7793 86.608C42.1713 87.184 41.5393 87.616 40.8833 87.904C40.2433 88.176 39.6193 88.312 39.0113 88.312ZM47.2602 88.336C46.2362 88.336 45.4442 88 44.8842 87.328C44.3402 86.656 44.0682 85.784 44.0682 84.712C44.0682 84.264 44.1162 83.816 44.2122 83.368C44.3882 82.424 44.7242 81.576 45.2202 80.824C45.7322 80.072 46.3562 79.488 47.0922 79.072C47.8282 78.64 48.6042 78.424 49.4202 78.424C50.4602 78.424 51.2602 78.752 51.8202 79.408C52.3802 80.064 52.6602 80.928 52.6602 82C52.6602 82.432 52.6122 82.888 52.5162 83.368C52.3242 84.392 51.9482 85.28 51.3882 86.032C50.8442 86.784 50.2042 87.36 49.4682 87.76C48.7482 88.144 48.0122 88.336 47.2602 88.336ZM48.0762 87.736C48.6362 87.736 49.1322 87.44 49.5642 86.848C49.9962 86.256 50.3082 85.448 50.5002 84.424C50.6122 83.88 50.6682 83.304 50.6682 82.696C50.6682 81.64 50.4842 80.76 50.1162 80.056C49.7642 79.352 49.2762 79 48.6522 79C48.1082 79 47.6122 79.288 47.1642 79.864C46.7322 80.44 46.4202 81.264 46.2282 82.336C46.1162 83.008 46.0602 83.576 46.0602 84.04C46.0602 85.112 46.2362 86 46.5882 86.704C46.9562 87.392 47.4522 87.736 48.0762 87.736ZM60.8095 81.112C60.8095 82.072 60.4815 82.992 59.8255 83.872C59.1695 84.736 58.3295 85.344 57.3055 85.696C58.2495 85.76 58.9695 86.12 59.4655 86.776C59.9615 87.416 60.2095 88.2 60.2095 89.128C60.2095 89.416 60.1855 89.704 60.1375 89.992C59.9775 90.904 59.6335 91.72 59.1055 92.44C58.5935 93.16 57.9375 93.72 57.1375 94.12C56.3535 94.536 55.5055 94.744 54.5935 94.744C53.6655 94.744 52.9215 94.592 52.3615 94.288C51.7855 94 51.4975 93.592 51.4975 93.064C51.4975 92.648 51.6095 92.336 51.8335 92.128C52.0575 91.936 52.3215 91.84 52.6255 91.84C52.9615 91.84 53.2015 91.928 53.3455 92.104C53.5055 92.296 53.6495 92.584 53.7775 92.968C53.9215 93.4 54.0895 93.728 54.2815 93.952C54.4895 94.192 54.8255 94.312 55.2895 94.312C56.0095 94.312 56.6095 94.008 57.0895 93.4C57.5695 92.792 57.8895 92.064 58.0495 91.216C58.1295 90.736 58.1695 90.32 58.1695 89.968C58.1695 88.784 57.8735 87.824 57.2815 87.088C56.6895 86.352 55.8895 85.984 54.8815 85.984C54.8335 85.984 54.8015 85.936 54.7855 85.84C54.7695 85.744 54.8015 85.696 54.8815 85.696C57.0415 85.696 58.3295 84.648 58.7455 82.552C58.7935 82.264 58.8175 82.008 58.8175 81.784C58.8175 81.064 58.6335 80.52 58.2655 80.152C57.9135 79.768 57.4495 79.576 56.8735 79.576C56.2815 79.576 55.6895 79.72 55.0975 80.008C54.5215 80.28 54.0415 80.68 53.6575 81.208C53.6415 81.224 53.6175 81.232 53.5855 81.232C53.5375 81.232 53.4895 81.216 53.4415 81.184C53.3935 81.136 53.3775 81.104 53.3935 81.088C53.9375 80.208 54.6095 79.536 55.4095 79.072C56.2095 78.608 57.0255 78.376 57.8575 78.376C58.7215 78.376 59.4255 78.632 59.9695 79.144C60.5295 79.656 60.8095 80.312 60.8095 81.112ZM70.9454 78.232C70.9774 78.2 71.0094 78.184 71.0414 78.184C71.0894 78.184 71.1374 78.2 71.1854 78.232C71.2334 78.248 71.2494 78.264 71.2334 78.28L69.2894 89.032C68.9534 90.856 68.3054 92.264 67.3454 93.256C66.3854 94.248 65.1934 94.744 63.7694 94.744C62.9534 94.744 62.2894 94.584 61.7774 94.264C61.2654 93.944 61.0094 93.528 61.0094 93.016C61.0094 92.632 61.1214 92.344 61.3454 92.152C61.5534 91.96 61.8094 91.864 62.1134 91.864C62.4014 91.864 62.6014 91.944 62.7134 92.104C62.8414 92.28 62.9614 92.544 63.0734 92.896C63.2014 93.328 63.3614 93.656 63.5534 93.88C63.7454 94.12 64.0894 94.24 64.5854 94.24C65.1934 94.24 65.7294 93.912 66.1934 93.256C66.6574 92.6 67.0574 91.376 67.3934 89.584L68.3774 83.944C67.7374 85.288 66.9774 86.352 66.0974 87.136C65.2334 87.92 64.3934 88.312 63.5774 88.312C63.0814 88.312 62.6974 88.168 62.4254 87.88C62.1534 87.576 62.0174 87.12 62.0174 86.512C62.0174 85.408 62.3614 84.224 63.0494 82.96C63.7534 81.68 64.6174 80.608 65.6414 79.744C66.6814 78.864 67.6654 78.424 68.5934 78.424C68.8974 78.424 69.1934 78.48 69.4814 78.592C69.7854 78.688 70.0414 78.84 70.2494 79.048C70.5694 78.776 70.8014 78.504 70.9454 78.232ZM64.8974 86.752C65.4734 86.752 66.0654 86.424 66.6734 85.768C67.2974 85.112 67.8174 84.328 68.2334 83.416C68.6494 82.504 68.8574 81.72 68.8574 81.064C68.8574 80.568 68.7374 80.184 68.4974 79.912C68.2574 79.624 67.9134 79.48 67.4654 79.48C66.9534 79.48 66.4574 79.688 65.9774 80.104C65.4974 80.504 65.0814 81.064 64.7294 81.784C64.3934 82.488 64.1534 83.28 64.0094 84.16C63.9454 84.544 63.9134 84.912 63.9134 85.264C63.9134 86.256 64.2414 86.752 64.8974 86.752ZM81.5995 86.152C81.6155 86.136 81.6395 86.128 81.6715 86.128C81.7195 86.128 81.7595 86.16 81.7915 86.224C81.8235 86.272 81.8235 86.312 81.7915 86.344C81.2635 86.968 80.7835 87.44 80.3515 87.76C79.9195 88.064 79.5035 88.216 79.1035 88.216C78.7355 88.216 78.4635 88.112 78.2875 87.904C78.1115 87.68 78.0235 87.336 78.0235 86.872C78.0235 86.536 78.0555 86.2 78.1195 85.864L78.4555 83.944C77.8155 85.288 77.0555 86.352 76.1755 87.136C75.3115 87.92 74.4715 88.312 73.6555 88.312C73.1595 88.312 72.7755 88.168 72.5035 87.88C72.2315 87.576 72.0955 87.12 72.0955 86.512C72.0955 85.408 72.4395 84.224 73.1275 82.96C73.8315 81.68 74.6955 80.608 75.7195 79.744C76.7595 78.864 77.7435 78.424 78.6715 78.424C78.9755 78.424 79.2715 78.48 79.5595 78.592C79.8635 78.688 80.1195 78.84 80.3275 79.048C80.6475 78.776 80.8795 78.504 81.0235 78.232C81.0555 78.2 81.0875 78.184 81.1195 78.184C81.1675 78.184 81.2155 78.2 81.2635 78.232C81.3115 78.248 81.3275 78.264 81.3115 78.28L79.9195 85.864C79.8715 86.104 79.8475 86.304 79.8475 86.464C79.8475 86.656 79.8795 86.808 79.9435 86.92C80.0075 87.032 80.0955 87.088 80.2075 87.088C80.5115 87.088 80.9755 86.776 81.5995 86.152ZM74.9755 86.752C75.5515 86.752 76.1435 86.424 76.7515 85.768C77.3755 85.112 77.8955 84.328 78.3115 83.416C78.7275 82.504 78.9355 81.72 78.9355 81.064C78.9355 80.568 78.8155 80.184 78.5755 79.912C78.3355 79.624 77.9915 79.48 77.5435 79.48C77.0315 79.48 76.5355 79.688 76.0555 80.104C75.5755 80.504 75.1595 81.064 74.8075 81.784C74.4715 82.488 74.2315 83.28 74.0875 84.16C74.0235 84.544 73.9915 84.912 73.9915 85.264C73.9915 86.256 74.3195 86.752 74.9755 86.752ZM93.0573 86.104C93.0733 86.088 93.0973 86.08 93.1293 86.08C93.1933 86.08 93.2413 86.112 93.2733 86.176C93.3053 86.224 93.2973 86.272 93.2493 86.32C92.6893 86.976 92.1773 87.456 91.7133 87.76C91.2653 88.064 90.8173 88.216 90.3693 88.216C90.0173 88.216 89.7613 88.12 89.6013 87.928C89.4413 87.736 89.3613 87.44 89.3613 87.04C89.3613 86.72 89.3933 86.4 89.4573 86.08L89.8893 83.632H86.0973L85.3773 87.76C85.2973 88.048 84.9133 88.192 84.2253 88.192C83.7453 88.192 83.5053 88.136 83.5053 88.024L83.6013 87.496C83.7613 86.744 83.8493 86.32 83.8652 86.224L84.8493 80.872C84.8813 80.728 84.8973 80.544 84.8973 80.32C84.8973 79.856 84.7533 79.624 84.4653 79.624C84.1133 79.624 83.6253 79.96 83.0013 80.632C82.9853 80.648 82.9613 80.656 82.9293 80.656C82.8813 80.656 82.8333 80.632 82.7853 80.584C82.7533 80.52 82.7613 80.464 82.8093 80.416C83.3693 79.76 83.8733 79.28 84.3213 78.976C84.7853 78.672 85.2413 78.52 85.6893 78.52C86.0413 78.52 86.2973 78.624 86.4573 78.832C86.6333 79.024 86.7213 79.328 86.7213 79.744C86.7213 79.872 86.6893 80.176 86.6253 80.656L86.1933 83.104H89.9853L90.7053 78.976C90.7533 78.688 91.1293 78.544 91.8333 78.544C92.3133 78.544 92.5533 78.6 92.5533 78.712L92.4573 79.192C92.4413 79.304 92.4013 79.496 92.3373 79.768C92.2733 80.04 92.2253 80.288 92.1933 80.512L91.2093 85.864C91.1773 86.008 91.1613 86.192 91.1613 86.416C91.1613 86.88 91.3053 87.112 91.5933 87.112C91.9453 87.112 92.4333 86.776 93.0573 86.104ZM104.495 86.104C104.511 86.088 104.535 86.08 104.567 86.08C104.631 86.08 104.679 86.112 104.711 86.176C104.743 86.224 104.735 86.272 104.687 86.32C104.127 86.976 103.615 87.456 103.151 87.76C102.703 88.064 102.255 88.216 101.807 88.216C101.455 88.216 101.199 88.12 101.039 87.928C100.879 87.736 100.799 87.44 100.799 87.04C100.799 86.72 100.831 86.4 100.895 86.08L101.327 83.632H97.5348L96.8148 87.76C96.7348 88.048 96.3508 88.192 95.6628 88.192C95.1828 88.192 94.9428 88.136 94.9428 88.024L95.0388 87.496C95.1988 86.744 95.2868 86.32 95.3027 86.224L96.2868 80.872C96.3188 80.728 96.3348 80.544 96.3348 80.32C96.3348 79.856 96.1908 79.624 95.9028 79.624C95.5508 79.624 95.0628 79.96 94.4388 80.632C94.4228 80.648 94.3988 80.656 94.3668 80.656C94.3188 80.656 94.2708 80.632 94.2228 80.584C94.1908 80.52 94.1988 80.464 94.2468 80.416C94.8068 79.76 95.3108 79.28 95.7588 78.976C96.2228 78.672 96.6788 78.52 97.1268 78.52C97.4788 78.52 97.7348 78.624 97.8948 78.832C98.0708 79.024 98.1588 79.328 98.1588 79.744C98.1588 79.872 98.1268 80.176 98.0628 80.656L97.6308 83.104H101.423L102.143 78.976C102.191 78.688 102.567 78.544 103.271 78.544C103.751 78.544 103.991 78.6 103.991 78.712L103.895 79.192C103.879 79.304 103.839 79.496 103.775 79.768C103.711 80.04 103.663 80.288 103.631 80.512L102.647 85.864C102.615 86.008 102.599 86.192 102.599 86.416C102.599 86.88 102.743 87.112 103.031 87.112C103.383 87.112 103.871 86.776 104.495 86.104ZM115.068 86.152C115.084 86.136 115.108 86.128 115.14 86.128C115.188 86.128 115.228 86.16 115.26 86.224C115.292 86.272 115.292 86.312 115.26 86.344C114.732 86.968 114.252 87.44 113.82 87.76C113.388 88.064 112.972 88.216 112.572 88.216C112.204 88.216 111.932 88.112 111.756 87.904C111.58 87.68 111.492 87.336 111.492 86.872C111.492 86.536 111.524 86.2 111.588 85.864L111.924 83.944C111.284 85.288 110.524 86.352 109.644 87.136C108.78 87.92 107.94 88.312 107.124 88.312C106.628 88.312 106.244 88.168 105.972 87.88C105.7 87.576 105.564 87.12 105.564 86.512C105.564 85.408 105.908 84.224 106.596 82.96C107.3 81.68 108.164 80.608 109.188 79.744C110.228 78.864 111.212 78.424 112.14 78.424C112.444 78.424 112.74 78.48 113.028 78.592C113.332 78.688 113.588 78.84 113.796 79.048C114.116 78.776 114.348 78.504 114.492 78.232C114.524 78.2 114.556 78.184 114.588 78.184C114.636 78.184 114.684 78.2 114.732 78.232C114.78 78.248 114.796 78.264 114.78 78.28L113.388 85.864C113.34 86.104 113.316 86.304 113.316 86.464C113.316 86.656 113.348 86.808 113.412 86.92C113.476 87.032 113.564 87.088 113.676 87.088C113.98 87.088 114.444 86.776 115.068 86.152ZM108.444 86.752C109.02 86.752 109.612 86.424 110.22 85.768C110.844 85.112 111.364 84.328 111.78 83.416C112.196 82.504 112.404 81.72 112.404 81.064C112.404 80.568 112.284 80.184 112.044 79.912C111.804 79.624 111.46 79.48 111.012 79.48C110.5 79.48 110.004 79.688 109.524 80.104C109.044 80.504 108.628 81.064 108.276 81.784C107.94 82.488 107.7 83.28 107.556 84.16C107.492 84.544 107.46 84.912 107.46 85.264C107.46 86.256 107.788 86.752 108.444 86.752ZM125.134 86.104C125.15 86.088 125.174 86.08 125.206 86.08C125.27 86.08 125.318 86.112 125.35 86.176C125.382 86.224 125.374 86.272 125.326 86.32C124.766 86.976 124.254 87.456 123.79 87.76C123.342 88.064 122.894 88.216 122.446 88.216C122.094 88.216 121.83 88.12 121.654 87.928C121.494 87.736 121.414 87.432 121.414 87.016C121.414 86.712 121.446 86.4 121.51 86.08L121.99 83.44C121.478 83.488 121.054 83.624 120.718 83.848C120.398 84.056 120.134 84.328 119.926 84.664C119.718 85 119.47 85.488 119.182 86.128C118.942 86.672 118.734 87.088 118.558 87.376C118.382 87.648 118.134 87.856 117.814 88C117.51 88.144 117.094 88.216 116.566 88.216C116.23 88.216 115.782 88.152 115.222 88.024C115.174 88.024 115.15 87.992 115.15 87.928C115.15 87.88 115.166 87.84 115.198 87.808C115.23 87.776 115.262 87.768 115.294 87.784C115.358 87.8 115.454 87.808 115.582 87.808C115.998 87.808 116.334 87.632 116.59 87.28C116.846 86.928 117.118 86.424 117.406 85.768C118.03 84.408 119.062 83.632 120.502 83.44C119.526 83.344 118.79 83.104 118.294 82.72C117.814 82.32 117.574 81.832 117.574 81.256C117.574 80.424 118.03 79.76 118.942 79.264C119.854 78.752 121.014 78.496 122.422 78.496C123.126 78.496 123.622 78.512 123.91 78.544C124.198 78.56 124.382 78.6 124.462 78.664C124.558 78.728 124.59 78.84 124.558 79L123.286 85.864C123.254 86.008 123.238 86.192 123.238 86.416C123.238 86.88 123.382 87.112 123.67 87.112C124.022 87.112 124.51 86.776 125.134 86.104ZM122.542 80.512C122.67 79.824 122.734 79.4 122.734 79.24C122.734 79.08 122.702 78.984 122.638 78.952C122.574 78.904 122.462 78.88 122.302 78.88C121.454 78.88 120.79 79.04 120.31 79.36C119.83 79.664 119.55 80.104 119.47 80.68C119.438 80.872 119.422 81.024 119.422 81.136C119.422 81.696 119.606 82.176 119.974 82.576C120.342 82.96 120.878 83.152 121.582 83.152C121.79 83.152 121.95 83.144 122.062 83.128L122.542 80.512ZM49.6599 111.152C49.6919 111.12 49.7159 111.104 49.7319 111.104C49.7799 111.104 49.8199 111.136 49.8519 111.2C49.8999 111.248 49.8999 111.296 49.8519 111.344C49.3079 111.984 48.8279 112.456 48.4119 112.76C47.9959 113.064 47.5639 113.216 47.1159 113.216C46.7639 113.216 46.4999 113.112 46.3239 112.904C46.1639 112.696 46.0839 112.384 46.0839 111.968C46.0839 111.712 46.1239 111.344 46.2039 110.864L46.8999 107.048C46.9799 106.664 47.0199 106.28 47.0199 105.896C47.0199 105.064 46.7399 104.648 46.1799 104.648C45.6999 104.648 45.2039 104.952 44.6919 105.56C44.1959 106.168 43.7239 107.056 43.2759 108.224C42.8279 109.376 42.4599 110.76 42.1719 112.376L42.0999 112.76C42.0199 113.048 41.6359 113.192 40.9479 113.192C40.4679 113.192 40.2279 113.136 40.2279 113.024L40.3239 112.496C40.4839 111.744 40.5719 111.32 40.5879 111.224L41.5719 105.872C41.6039 105.728 41.6199 105.544 41.6199 105.32C41.6199 104.856 41.4759 104.624 41.1879 104.624C40.8359 104.624 40.3479 104.96 39.7239 105.632C39.7079 105.648 39.6839 105.656 39.6519 105.656C39.6039 105.656 39.5559 105.632 39.5079 105.584C39.4759 105.52 39.4839 105.464 39.5319 105.416C40.0919 104.76 40.5959 104.28 41.0439 103.976C41.5079 103.672 41.9639 103.52 42.4119 103.52C42.7639 103.52 43.0199 103.624 43.1799 103.832C43.3559 104.024 43.4439 104.328 43.4439 104.744C43.4439 104.872 43.4119 105.176 43.3479 105.656L42.9159 108.056C43.4759 106.584 44.1319 105.448 44.8839 104.648C45.6359 103.832 46.4279 103.424 47.2599 103.424C48.3319 103.424 48.8679 104.072 48.8679 105.368C48.8679 105.672 48.8279 106.08 48.7479 106.592L47.9559 110.864C47.9079 111.104 47.8839 111.304 47.8839 111.464C47.8839 111.88 48.0199 112.088 48.2919 112.088C48.5799 112.088 49.0359 111.776 49.6599 111.152ZM57.1642 103.568C57.9642 103.568 58.5722 103.784 58.9882 104.216C59.4202 104.648 59.6362 105.272 59.6362 106.088C59.6362 106.36 59.6122 106.64 59.5642 106.928C59.4042 108 59.0282 109.008 58.4362 109.952C57.8602 110.88 57.1562 111.624 56.3242 112.184C55.5082 112.744 54.6682 113.024 53.8042 113.024C53.4842 113.024 53.1162 113.008 52.7002 112.976L51.9322 117.272C51.8842 117.56 51.8602 117.792 51.8602 117.968C51.8602 118.224 51.9162 118.408 52.0282 118.52C52.1562 118.632 52.3562 118.688 52.6282 118.688C52.6922 118.688 52.8682 118.672 53.1562 118.64C53.2202 118.624 53.2602 118.656 53.2762 118.736C53.2922 118.832 53.2682 118.888 53.2042 118.904L48.7882 119.6C48.7402 119.616 48.7082 119.576 48.6922 119.48C48.6602 119.384 48.6762 119.328 48.7402 119.312C49.0762 119.248 49.3242 119.16 49.4842 119.048C49.6442 118.952 49.7642 118.792 49.8442 118.568C49.9242 118.344 50.0122 117.968 50.1082 117.44L52.1482 105.968C51.5882 106.352 51.1962 106.624 50.9722 106.784C50.9562 106.8 50.9322 106.808 50.9002 106.808C50.8522 106.808 50.8122 106.776 50.7802 106.712C50.7482 106.648 50.7562 106.6 50.8042 106.568C51.1242 106.296 51.6042 105.92 52.2442 105.44L52.5562 103.736C52.5562 103.704 52.7162 103.584 53.0362 103.376C53.3562 103.152 53.6442 102.928 53.9002 102.704C54.1562 102.464 54.3162 102.2 54.3802 101.912C54.3962 101.848 54.4442 101.824 54.5242 101.84C54.6202 101.856 54.6602 101.896 54.6442 101.96L54.2362 104.288C55.2762 103.808 56.2522 103.568 57.1642 103.568ZM57.6682 107.72C57.7002 107.4 57.7162 107.16 57.7162 107C57.7162 105.432 57.0522 104.648 55.7242 104.648C55.1802 104.648 54.6442 104.752 54.1162 104.96L52.8682 111.968C53.3962 112.208 53.9802 112.328 54.6202 112.328C55.4682 112.328 56.1402 111.912 56.6362 111.08C57.1482 110.248 57.4922 109.128 57.6682 107.72ZM70.7062 111.104C70.7222 111.088 70.7462 111.08 70.7782 111.08C70.8262 111.08 70.8662 111.112 70.8982 111.176C70.9302 111.224 70.9302 111.272 70.8982 111.32C70.3222 111.976 69.8022 112.456 69.3382 112.76C68.8902 113.064 68.4422 113.216 67.9942 113.216C67.6422 113.216 67.3862 113.12 67.2262 112.928C67.0662 112.736 66.9862 112.432 66.9862 112.016C66.9862 111.712 67.0182 111.4 67.0822 111.08L67.4902 108.656C66.9302 110.128 66.2742 111.272 65.5222 112.088C64.7862 112.904 64.0022 113.312 63.1702 113.312C62.0822 113.312 61.5382 112.672 61.5382 111.392C61.5382 110.96 61.5782 110.544 61.6582 110.144L62.5222 105.872C62.5702 105.632 62.5942 105.432 62.5942 105.272C62.5942 104.856 62.4582 104.648 62.1862 104.648C62.0262 104.648 61.8342 104.728 61.6102 104.888C61.3862 105.048 61.1222 105.28 60.8182 105.584C60.7862 105.616 60.7542 105.632 60.7222 105.632C60.6742 105.632 60.6342 105.608 60.6022 105.56C60.5702 105.496 60.5782 105.44 60.6262 105.392C61.1862 104.736 61.6662 104.264 62.0662 103.976C62.4822 103.672 62.9062 103.52 63.3382 103.52C64.0422 103.52 64.3942 103.952 64.3942 104.816C64.3942 105.072 64.3542 105.424 64.2742 105.872L63.5062 109.688C63.4102 110.136 63.3622 110.52 63.3622 110.84C63.3622 111.672 63.6502 112.088 64.2262 112.088C64.7062 112.088 65.2022 111.776 65.7142 111.152C66.2262 110.528 66.7062 109.616 67.1542 108.416C67.6182 107.216 67.9942 105.792 68.2822 104.144L68.3062 103.976C68.3862 103.688 68.7702 103.544 69.4582 103.544C69.9382 103.544 70.1782 103.6 70.1782 103.712L70.0822 104.24C69.9222 104.992 69.8342 105.416 69.8182 105.512L68.8342 110.864C68.8022 111.008 68.7862 111.192 68.7862 111.416C68.7862 111.88 68.9302 112.112 69.2182 112.112C69.5702 112.112 70.0662 111.776 70.7062 111.104ZM78.2345 103.568C79.0345 103.568 79.6425 103.784 80.0585 104.216C80.4905 104.648 80.7065 105.272 80.7065 106.088C80.7065 106.36 80.6825 106.64 80.6345 106.928C80.4745 108 80.0985 109.008 79.5065 109.952C78.9305 110.88 78.2265 111.624 77.3945 112.184C76.5785 112.744 75.7385 113.024 74.8745 113.024C74.5545 113.024 74.1865 113.008 73.7705 112.976L73.0025 117.272C72.9545 117.56 72.9305 117.792 72.9305 117.968C72.9305 118.224 72.9865 118.408 73.0985 118.52C73.2265 118.632 73.4265 118.688 73.6985 118.688C73.7625 118.688 73.9385 118.672 74.2265 118.64C74.2905 118.624 74.3305 118.656 74.3465 118.736C74.3625 118.832 74.3385 118.888 74.2745 118.904L69.8585 119.6C69.8105 119.616 69.7785 119.576 69.7625 119.48C69.7305 119.384 69.7465 119.328 69.8105 119.312C70.1465 119.248 70.3945 119.16 70.5545 119.048C70.7145 118.952 70.8345 118.792 70.9145 118.568C70.9945 118.344 71.0825 117.968 71.1785 117.44L73.2185 105.968C72.6585 106.352 72.2665 106.624 72.0425 106.784C72.0265 106.8 72.0025 106.808 71.9705 106.808C71.9225 106.808 71.8825 106.776 71.8505 106.712C71.8185 106.648 71.8265 106.6 71.8745 106.568C72.1945 106.296 72.6745 105.92 73.3145 105.44L73.6265 103.736C73.6265 103.704 73.7865 103.584 74.1065 103.376C74.4265 103.152 74.7145 102.928 74.9705 102.704C75.2265 102.464 75.3865 102.2 75.4505 101.912C75.4665 101.848 75.5145 101.824 75.5945 101.84C75.6905 101.856 75.7305 101.896 75.7145 101.96L75.3065 104.288C76.3465 103.808 77.3225 103.568 78.2345 103.568ZM78.7385 107.72C78.7705 107.4 78.7865 107.16 78.7865 107C78.7865 105.432 78.1225 104.648 76.7945 104.648C76.2505 104.648 75.7145 104.752 75.1865 104.96L73.9385 111.968C74.4665 112.208 75.0505 112.328 75.6905 112.328C76.5385 112.328 77.2105 111.912 77.7065 111.08C78.2185 110.248 78.5625 109.128 78.7385 107.72ZM84.9125 113.336C83.8885 113.336 83.0965 113 82.5365 112.328C81.9925 111.656 81.7205 110.784 81.7205 109.712C81.7205 109.264 81.7685 108.816 81.8645 108.368C82.0405 107.424 82.3765 106.576 82.8725 105.824C83.3845 105.072 84.0085 104.488 84.7445 104.072C85.4805 103.64 86.2565 103.424 87.0725 103.424C88.1125 103.424 88.9125 103.752 89.4725 104.408C90.0325 105.064 90.3125 105.928 90.3125 107C90.3125 107.432 90.2645 107.888 90.1685 108.368C89.9765 109.392 89.6005 110.28 89.0405 111.032C88.4965 111.784 87.8565 112.36 87.1205 112.76C86.4005 113.144 85.6645 113.336 84.9125 113.336ZM85.7285 112.736C86.2885 112.736 86.7845 112.44 87.2165 111.848C87.6485 111.256 87.9605 110.448 88.1525 109.424C88.2645 108.88 88.3205 108.304 88.3205 107.696C88.3205 106.64 88.1365 105.76 87.7685 105.056C87.4165 104.352 86.9285 104 86.3045 104C85.7605 104 85.2645 104.288 84.8165 104.864C84.3845 105.44 84.0725 106.264 83.8805 107.336C83.7685 108.008 83.7125 108.576 83.7125 109.04C83.7125 110.112 83.8885 111 84.2405 111.704C84.6085 112.392 85.1045 112.736 85.7285 112.736ZM100.207 103.232C100.239 103.2 100.271 103.184 100.303 103.184C100.351 103.184 100.399 103.2 100.447 103.232C100.495 103.248 100.511 103.264 100.495 103.28L98.5511 114.032C98.2151 115.856 97.5671 117.264 96.6071 118.256C95.6471 119.248 94.4551 119.744 93.0311 119.744C92.2151 119.744 91.5511 119.584 91.0391 119.264C90.5271 118.944 90.2711 118.528 90.2711 118.016C90.2711 117.632 90.3831 117.344 90.6071 117.152C90.8151 116.96 91.0711 116.864 91.3751 116.864C91.6631 116.864 91.8631 116.944 91.9751 117.104C92.1031 117.28 92.2231 117.544 92.3351 117.896C92.4631 118.328 92.6231 118.656 92.8151 118.88C93.0071 119.12 93.3511 119.24 93.8471 119.24C94.4551 119.24 94.9911 118.912 95.4551 118.256C95.9191 117.6 96.3191 116.376 96.6551 114.584L97.6391 108.944C96.9991 110.288 96.2391 111.352 95.3591 112.136C94.4951 112.92 93.6551 113.312 92.8391 113.312C92.3431 113.312 91.9591 113.168 91.6871 112.88C91.4151 112.576 91.2791 112.12 91.2791 111.512C91.2791 110.408 91.6231 109.224 92.3111 107.96C93.0151 106.68 93.8791 105.608 94.9031 104.744C95.9431 103.864 96.9271 103.424 97.8551 103.424C98.1591 103.424 98.4551 103.48 98.7431 103.592C99.0471 103.688 99.3031 103.84 99.5111 104.048C99.8311 103.776 100.063 103.504 100.207 103.232ZM94.1591 111.752C94.7351 111.752 95.3271 111.424 95.9351 110.768C96.5591 110.112 97.0791 109.328 97.4951 108.416C97.9111 107.504 98.1191 106.72 98.1191 106.064C98.1191 105.568 97.9991 105.184 97.7591 104.912C97.5191 104.624 97.1751 104.48 96.7271 104.48C96.2151 104.48 95.7191 104.688 95.2391 105.104C94.7591 105.504 94.3431 106.064 93.9911 106.784C93.6551 107.488 93.4151 108.28 93.2711 109.16C93.2071 109.544 93.1751 109.912 93.1751 110.264C93.1751 111.256 93.5031 111.752 94.1591 111.752ZM104.717 113.336C103.693 113.336 102.901 113 102.341 112.328C101.797 111.656 101.525 110.784 101.525 109.712C101.525 109.264 101.573 108.816 101.669 108.368C101.845 107.424 102.181 106.576 102.677 105.824C103.189 105.072 103.813 104.488 104.549 104.072C105.285 103.64 106.061 103.424 106.877 103.424C107.917 103.424 108.717 103.752 109.277 104.408C109.837 105.064 110.117 105.928 110.117 107C110.117 107.432 110.069 107.888 109.973 108.368C109.781 109.392 109.405 110.28 108.845 111.032C108.301 111.784 107.661 112.36 106.925 112.76C106.205 113.144 105.469 113.336 104.717 113.336ZM105.533 112.736C106.093 112.736 106.589 112.44 107.021 111.848C107.453 111.256 107.765 110.448 107.957 109.424C108.069 108.88 108.125 108.304 108.125 107.696C108.125 106.64 107.941 105.76 107.573 105.056C107.221 104.352 106.733 104 106.109 104C105.565 104 105.069 104.288 104.621 104.864C104.189 105.44 103.877 106.264 103.685 107.336C103.573 108.008 103.517 108.576 103.517 109.04C103.517 110.112 103.693 111 104.045 111.704C104.413 112.392 104.909 112.736 105.533 112.736ZM117.156 101.888C116.388 101.888 115.772 101.672 115.308 101.24C114.86 100.792 114.62 100.256 114.588 99.632C114.572 99.536 114.724 99.448 115.044 99.368C115.38 99.288 115.692 99.248 115.98 99.248C116.188 99.248 116.3 99.272 116.316 99.32C116.412 99.736 116.612 100.064 116.916 100.304C117.22 100.544 117.596 100.664 118.044 100.664C118.444 100.664 118.804 100.568 119.124 100.376C119.444 100.168 119.748 99.84 120.036 99.392C120.068 99.344 120.116 99.32 120.18 99.32C120.244 99.32 120.3 99.344 120.348 99.392C120.396 99.424 120.412 99.456 120.396 99.488C120.108 100.272 119.676 100.872 119.1 101.288C118.54 101.688 117.892 101.888 117.156 101.888ZM121.308 111.104C121.324 111.088 121.348 111.08 121.38 111.08C121.428 111.08 121.468 111.112 121.5 111.176C121.532 111.224 121.532 111.272 121.5 111.32C120.924 111.976 120.404 112.456 119.94 112.76C119.492 113.064 119.044 113.216 118.596 113.216C118.244 113.216 117.988 113.12 117.828 112.928C117.668 112.736 117.588 112.432 117.588 112.016C117.588 111.712 117.62 111.4 117.684 111.08L118.092 108.656C117.532 110.128 116.876 111.272 116.124 112.088C115.388 112.904 114.604 113.312 113.772 113.312C112.684 113.312 112.14 112.672 112.14 111.392C112.14 110.96 112.18 110.544 112.26 110.144L113.124 105.872C113.172 105.632 113.196 105.432 113.196 105.272C113.196 104.856 113.06 104.648 112.788 104.648C112.628 104.648 112.436 104.728 112.212 104.888C111.988 105.048 111.724 105.28 111.42 105.584C111.388 105.616 111.356 105.632 111.324 105.632C111.276 105.632 111.236 105.608 111.204 105.56C111.172 105.496 111.18 105.44 111.228 105.392C111.788 104.736 112.268 104.264 112.668 103.976C113.084 103.672 113.508 103.52 113.94 103.52C114.644 103.52 114.996 103.952 114.996 104.816C114.996 105.072 114.956 105.424 114.876 105.872L114.108 109.688C114.012 110.136 113.964 110.52 113.964 110.84C113.964 111.672 114.252 112.088 114.828 112.088C115.308 112.088 115.804 111.776 116.316 111.152C116.828 110.528 117.308 109.616 117.756 108.416C118.22 107.216 118.596 105.792 118.884 104.144L118.908 103.976C118.988 103.688 119.372 103.544 120.06 103.544C120.54 103.544 120.78 103.6 120.78 103.712L120.684 104.24C120.524 104.992 120.436 105.416 120.42 105.512L119.436 110.864C119.404 111.008 119.388 111.192 119.388 111.416C119.388 111.88 119.532 112.112 119.82 112.112C120.172 112.112 120.668 111.776 121.308 111.104Z" fill="url(#paint0_linear_20_47)"/>
<circle cx="80.5" cy="80.5" r="80" stroke="url(#paint1_linear_20_47)"/>
<defs>
<linearGradient id="paint0_linear_20_47" x1="28" y1="81.3334" x2="133.013" y2="81.6339" gradientUnits="userSpaceOnUse">
<stop stop-color="#E2AE80"/>
<stop offset="1" stop-color="#CC9872"/>
</linearGradient>
<linearGradient id="paint1_linear_20_47" x1="-7.22253e-07" y1="82.289" x2="161.021" y2="82.6181" gradientUnits="userSpaceOnUse">
<stop stop-color="#E2AE80"/>
<stop offset="1" stop-color="#CC9872"/>
</linearGradient>
</defs>
</svg>
