<svg width="67" height="67" viewBox="0 0 67 67" fill="none" xmlns="http://www.w3.org/2000/svg">
<g id="construction_project_plan_building_architect_design_develop-62_icon-icons.com_60212 1">
<g id="Group">
<path id="Vector" d="M3.14062 54.4375H1.04688C1.04688 59.3578 5.025 63.3359 9.94531 63.3359H65.9531V8.89844H10.9922V1.04688H9.94531C5.025 1.04688 1.04688 5.025 1.04688 9.94531V54.4375H3.14062C3.14062 50.6688 6.17656 47.6328 9.94531 47.6328H10.9922V10.9922H63.8594V61.2422H9.94531C6.17656 61.2422 3.14062 58.2062 3.14062 54.4375ZM8.89844 45.5914C6.59531 45.8531 4.55391 47.0047 3.14062 48.6797V9.94531C3.14062 6.54297 5.65313 3.71641 8.89844 3.24531V45.5914Z" fill="url(#paint0_linear_1_790)"/>
<path id="Vector_2" d="M53.9141 15.1797H47.6328V50.5117L50.7734 56.793L53.9141 50.5117V15.1797ZM51.8203 17.2734V23.0312H49.7266V17.2734H51.8203ZM50.7734 52.082L49.7266 49.9883V25.125H51.8203V49.9883L50.7734 52.082Z" fill="url(#paint1_linear_1_790)"/>
<path id="Vector_3" d="M21.9844 40.3047V42.3984H26.1719L23.5547 56.8977L25.5961 57.2641L28.2656 42.3984H34.5469L37.2164 57.2641L39.2578 56.8977L36.6406 42.3984H40.8281V40.3047H36.2742L35.0703 33.3953C36.693 32.2437 37.6875 30.307 37.6875 28.2656C37.6875 25.1773 35.4367 22.5602 32.4531 22.0891V15.1797H30.3594V22.0891C27.3758 22.6125 25.125 25.1773 25.125 28.2656C25.125 30.307 26.1195 32.1914 27.7422 33.3953L26.5383 40.3047H21.9844ZM29.4172 31.9297C28.0563 31.1969 27.2188 29.7836 27.2188 28.2656C27.2188 25.9625 29.1031 24.0781 31.4062 24.0781C33.7094 24.0781 35.5938 25.9625 35.5938 28.2656C35.5938 29.7836 34.7562 31.1969 33.3953 31.9297L32.7148 32.2961L34.1805 40.3047H28.632L30.0453 32.2961L29.4172 31.9297Z" fill="url(#paint2_linear_1_790)"/>
</g>
</g>
<defs>
<linearGradient id="paint0_linear_1_790" x1="1.04687" y1="32.8835" x2="65.9617" y2="33.0218" gradientUnits="userSpaceOnUse">
<stop stop-color="#E2AE80"/>
<stop offset="1" stop-color="#CC9872"/>
</linearGradient>
<linearGradient id="paint1_linear_1_790" x1="47.6328" y1="36.4487" x2="53.9149" y2="36.4507" gradientUnits="userSpaceOnUse">
<stop stop-color="#E2AE80"/>
<stop offset="1" stop-color="#CC9872"/>
</linearGradient>
<linearGradient id="paint2_linear_1_790" x1="21.9844" y1="36.6895" x2="40.8307" y2="36.7067" gradientUnits="userSpaceOnUse">
<stop stop-color="#E2AE80"/>
<stop offset="1" stop-color="#CC9872"/>
</linearGradient>
</defs>
</svg>
