<svg width="67" height="67" viewBox="0 0 67 67" fill="none" xmlns="http://www.w3.org/2000/svg">
<g id="hand_tool_tools_work_building_repair_construction_construction_tools-86_icon-icons.com_60401 1">
<g id="Group">
<g id="Group_2">
<path id="Vector" d="M39.2055 26.5906L39.7812 26.2766V7.32812C39.7812 3.87344 36.9547 1.04688 33.5 1.04688C30.0453 1.04688 27.2188 3.87344 27.2188 7.32812V26.2766L27.7945 26.5906C28.4227 26.9047 28.8414 27.5328 28.8414 28.2656C28.8414 28.9984 28.475 29.6266 27.7945 29.9406L27.2188 30.2547V34.5469H32.4531V48.418C32.1391 48.575 31.8773 48.732 31.668 48.9937C31.1969 49.5172 30.9875 50.1977 31.0398 50.8781L31.5109 55.4844H35.4891L35.9602 50.8781C36.0125 50.1977 35.8031 49.5172 35.332 48.9937C35.1227 48.732 34.8609 48.575 34.5469 48.418V34.5469H39.7812V30.2547L39.2055 29.9406C38.5773 29.6266 38.1586 28.9984 38.1586 28.2656C38.1586 27.5328 38.5773 26.9047 39.2055 26.5906ZM33.6047 53.3906H33.3953L33.1336 50.6688C33.1336 50.5117 33.1859 50.407 33.2383 50.3547C33.2906 50.3023 33.343 50.25 33.5 50.25C33.657 50.25 33.7617 50.3023 33.7617 50.3547C33.7617 50.407 33.8664 50.5117 33.8664 50.6688L33.6047 53.3906ZM33.5 3.14062C35.4367 3.14062 37.0594 4.50156 37.5305 6.28125H29.4695C29.9406 4.50156 31.5633 3.14062 33.5 3.14062ZM37.6875 31.4586V32.4531H29.3125V31.4586C30.307 30.7258 30.9352 29.5219 30.9352 28.2656C30.9352 26.957 30.307 25.8055 29.3125 25.0727V8.375H37.6875V25.0727C36.693 25.8055 36.0648 27.0094 36.0648 28.2656C36.0648 29.5742 36.693 30.7258 37.6875 31.4586Z" fill="url(#paint0_linear_1_801)"/>
<path id="Vector_2" d="M6.85703 29.9406L6.28125 30.2547V34.5469H11.5156V58.8867C11.2016 59.0438 10.9398 59.2008 10.7305 59.4625C10.2594 59.9859 10.05 60.6664 10.1023 61.3469L10.5734 65.9531H14.5516L15.0227 61.3469C15.075 60.6664 14.8656 59.9859 14.3945 59.4625C14.1852 59.2008 13.9234 59.0438 13.6094 58.8867V34.5469H18.8438V30.2547L18.268 29.9406C17.6398 29.6266 17.2211 28.9984 17.2211 28.2656C17.2211 27.5328 17.5875 26.9047 18.268 26.5906L18.8438 26.2766V7.32812C18.8438 3.87344 16.0172 1.04688 12.5625 1.04688C9.10781 1.04688 6.28125 3.87344 6.28125 7.32812V26.2766L6.85703 26.5906C7.48516 26.9047 7.90391 27.5328 7.90391 28.2656C7.90391 28.9984 7.48516 29.6266 6.85703 29.9406ZM12.6672 63.8594H12.4578L12.1961 61.1375C12.1961 60.9805 12.2484 60.8758 12.3008 60.8234C12.3531 60.7711 12.4578 60.7188 12.5625 60.7188C12.7195 60.7188 12.8242 60.7711 12.8242 60.8234C12.8242 60.8758 12.9289 60.9805 12.9289 61.1375L12.6672 63.8594ZM16.75 31.4586V32.4531H8.375V31.4586C9.36953 30.7258 9.99766 29.5219 9.99766 28.2656C9.99766 26.957 9.36953 25.8055 8.375 25.0727V8.375H16.75V25.0727C15.7555 25.8055 15.1273 27.0094 15.1273 28.2656C15.1273 29.5742 15.7555 30.7258 16.75 31.4586ZM12.5625 3.14062C14.4992 3.14062 16.1219 4.50156 16.593 6.28125H8.53203C9.00312 4.50156 10.6258 3.14062 12.5625 3.14062Z" fill="url(#paint1_linear_1_801)"/>
<path id="Vector_3" d="M60.143 26.5906L60.7188 26.2766V7.32812C60.7188 3.87344 57.8922 1.04688 54.4375 1.04688C50.9828 1.04688 48.1562 3.87344 48.1562 7.32812V26.2766L48.732 26.5906C49.3602 26.9047 49.7789 27.5328 49.7789 28.2656C49.7789 28.9984 49.4125 29.6266 48.732 29.9406L48.1562 30.2547V34.5469H53.3906V37.9492C53.0766 38.1063 52.8148 38.2633 52.6055 38.525C52.1344 39.0484 51.925 39.7289 51.9773 40.4094L52.4484 45.0156H56.4266L56.8977 40.4094C56.95 39.7289 56.7406 39.0484 56.2695 38.525C56.0602 38.2633 55.7984 38.1063 55.4844 37.9492V34.5469H60.7188V30.2547L60.143 29.9406C59.5148 29.6266 59.0961 28.9984 59.0961 28.2656C59.0961 27.5328 59.5148 26.9047 60.143 26.5906ZM54.5422 42.9219H54.3328L54.0711 40.2C54.0711 40.043 54.1234 39.9383 54.1758 39.8859C54.2281 39.8336 54.3328 39.7812 54.4375 39.7812C54.5945 39.7812 54.6992 39.8336 54.6992 39.8859C54.7516 39.9383 54.8039 40.043 54.8039 40.2L54.5422 42.9219ZM54.4375 3.14062C56.3742 3.14062 57.9969 4.50156 58.468 6.28125H50.407C50.8781 4.50156 52.5008 3.14062 54.4375 3.14062ZM58.625 31.4586V32.4531H50.25V31.4586C51.2445 30.7258 51.8727 29.5219 51.8727 28.2656C51.8727 26.957 51.2445 25.8055 50.25 25.0727V8.375H58.625V25.0727C57.6305 25.8055 57.0023 27.0094 57.0023 28.2656C57.0023 29.5742 57.6305 30.7258 58.625 31.4586Z" fill="url(#paint2_linear_1_801)"/>
</g>
</g>
</g>
<defs>
<linearGradient id="paint0_linear_1_801" x1="27.2187" y1="28.8705" x2="39.783" y2="28.8764" gradientUnits="userSpaceOnUse">
<stop stop-color="#E2AE80"/>
<stop offset="1" stop-color="#CC9872"/>
</linearGradient>
<linearGradient id="paint1_linear_1_801" x1="6.28125" y1="34.2212" x2="18.8455" y2="34.2262" gradientUnits="userSpaceOnUse">
<stop stop-color="#E2AE80"/>
<stop offset="1" stop-color="#CC9872"/>
</linearGradient>
<linearGradient id="paint2_linear_1_801" x1="48.1562" y1="23.5198" x2="60.7205" y2="23.5272" gradientUnits="userSpaceOnUse">
<stop stop-color="#E2AE80"/>
<stop offset="1" stop-color="#CC9872"/>
</linearGradient>
</defs>
</svg>
